<?xml version="1.0" encoding="UTF-8" standalone="no"?>
<svg
   viewBox="0 0 463.88 104.44"
   version="1.1"
   id="svg134"
   xmlns="http://www.w3.org/2000/svg"
   xmlns:svg="http://www.w3.org/2000/svg">
  <defs
     id="defs4">
    <style
       id="style2">.cls-1{fill:#003a63;}</style>
  </defs>
  <g
     id="Ebene_2"
     data-name="Ebene 2">
    <g
       id="Ebene_1-2"
       data-name="Ebene 1">
      <path
         class="cls-1"
         d="M0,39.51c1.8,0,3.59-.07,5.39,0,.81,0,1.14-.22,1.11-1.08-.06-1.6,0-3.19,0-4.79,0-.4,0-.78.46-1,1.06-.44,2.1-.91,3.34-1.45,0,2.45,0,4.74,0,7,0,1,.22,1.34,1.25,1.29,1.67-.08,3.35,0,5,0,1.28,0,.81.9.87,1.51s.12,1.28-.91,1.25c-1.71-.06-3.43,0-5.15,0-.82,0-1.09.23-1.09,1.07,0,6.78,0,13.56,0,20.34,0,3.91,1.74,5.28,5.67,4.65,1.76-.29,1.66-.28,1.79,1.52.09,1.3-.39,1.66-1.59,1.6-1.39-.07-2.77.23-4.18,0-3.6-.47-5.47-2.48-5.49-6.15,0-7,0-14,0-21.05,0-2.25.35-2-2.05-2L0,42.14Z"
         id="path6"
         style="fill:#ffffff;fill-opacity:1" />
      <path
         class="cls-1"
         d="M149.68,0c.83.39,1.75.5,2.57,1a7.61,7.61,0,1,1-5.62-.66c.3-.08.6-.19.89-.29Z"
         id="path8"
         style="fill:#ffffff;fill-opacity:1" />
      <path
         class="cls-1"
         d="M93.6,65.64a16.51,16.51,0,0,1-4,3.7c-6.63,4.07-15.94,1.28-19-5.86a20.36,20.36,0,0,1,.12-16.84c2.63-5.8,7.7-8.3,14-7.74,8.79.76,12.07,7.27,12.5,12.94A107.24,107.24,0,0,1,97.1,72.5c-.6,5.07-2.74,9.16-8.1,10.74a18.79,18.79,0,0,1-5.21.69A21.75,21.75,0,0,1,77,83.06a8,8,0,0,1-6-7.25c-.06-.8.1-1.19,1-1.11a9.25,9.25,0,0,1,2.49.11c.76.32.42,1.4.67,2.12a5.39,5.39,0,0,0,3.74,3.57,14.22,14.22,0,0,0,8.61,0,7.38,7.38,0,0,0,4.65-4C93.76,73,93.54,69.3,93.6,65.64Zm.24-10.92a14.8,14.8,0,0,0-2.52-8.65,9.28,9.28,0,0,0-16,.57,17.58,17.58,0,0,0-.51,16.12c1.69,3.88,4.88,5.65,9.11,5.52,4.07-.13,6.8-2.21,8.45-5.82A18.25,18.25,0,0,0,93.84,54.72Z"
         id="path10"
         style="fill:#ffffff;fill-opacity:1" />
      <path
         class="cls-1"
         d="M123.28,32.53A4.62,4.62,0,0,1,127,34.08c2.79,3.24,6.59,4.62,10.46,6,6.73,2.33,13.65,2.12,20.6,1.8,3.74-.18,7.28-1.44,10.94-1.86,4.1-.47,6.38,1.19,7.68,4.17a7.38,7.38,0,0,1-1.88,8.6c-2.74,2.24-6.42,2.63-9.07.55A59.55,59.55,0,0,0,149,44.17a47.1,47.1,0,0,0-20.14-2.53c-1.87.14-3.63.89-5.51,1-3.53.28-5.68-1.28-5.81-4.4C117.36,34.68,119.48,32.44,123.28,32.53Z"
         id="path12"
         style="fill:#ffffff;fill-opacity:1" />
      <path
         class="cls-1"
         d="M34.75,45a12.77,12.77,0,0,1,4.69-4.71A12.56,12.56,0,0,1,57,45.93c3,6.72,2.83,13.54-1.11,19.92-3.07,5-8.78,6.94-14.9,5.43A13,13,0,0,1,31,59.76,44.79,44.79,0,0,1,30.74,55c0-9.34,0-18.68,0-28,0-1,.15-1.39,1.28-1.34,2.53.09,2.53,0,2.53,2.59q0,7.66,0,15.32A2.51,2.51,0,0,0,34.75,45Zm20,10.26a18.19,18.19,0,0,0-1.65-8.12c-1.45-3-3.7-5-7.14-5.24-3.75-.28-6.94.89-8.91,4.21-3.44,5.78-3.38,11.83-.64,17.83a8,8,0,0,0,7.8,4.79,9.07,9.07,0,0,0,8.59-4.84A16.92,16.92,0,0,0,54.78,55.26Z"
         id="path14"
         style="fill:#ffffff;fill-opacity:1" />
      <path
         class="cls-1"
         d="M148.35,24.62c-2.93.25-6.15.52-8.83,2.86a3.42,3.42,0,0,1-4.94-.45,3.88,3.88,0,0,1,0-4.86,3.73,3.73,0,0,1,4.87-.69c4.31,2.61,8.88,2.51,13.52,1.16a20.59,20.59,0,0,0,8.41-4.58,8.65,8.65,0,0,1,14,3.49c1.79,5.6-1.63,10.86-7.39,11.32a9.06,9.06,0,0,1-5.71-1.8c-2.1-1.38-4-3-6.21-4.27A14.68,14.68,0,0,0,148.35,24.62Z"
         id="path16"
         style="fill:#ffffff;fill-opacity:1" />
      <path
         class="cls-1"
         d="M137.82,78.8a7.61,7.61,0,0,1-2.26,1.12,9.75,9.75,0,0,0-4.38,3.35,9.36,9.36,0,0,1-14.07,1.45A8.59,8.59,0,1,1,130,73.32C132.14,75.74,134.19,78.18,137.82,78.8Z"
         id="path18"
         style="fill:#ffffff;fill-opacity:1" />
      <path
         class="cls-1"
         d="M139.55,61.14c-3.1.15-6.16.15-9.21.35a28.6,28.6,0,0,0-9.71,1.85,7.67,7.67,0,0,1-10.38-5.14,7.22,7.22,0,0,1,6.43-8.88,7.42,7.42,0,0,1,6.78,2.5c3,3.41,7,5,10.9,7C136.05,59.68,137.82,60.37,139.55,61.14Z"
         id="path20"
         style="fill:#ffffff;fill-opacity:1" />
      <path
         class="cls-1"
         d="M145.32,62.08a47.25,47.25,0,0,0,12.29-1.25c1.74-.41,3.33-1.33,5.13-1.56a6.4,6.4,0,0,1,6.6,5c.5,3.43-1.72,6.78-4.81,7.12a7.09,7.09,0,0,1-4.85-1.36,87.73,87.73,0,0,0-13.77-7.64C145.78,62.37,145.66,62.28,145.32,62.08Z"
         id="path22"
         style="fill:#ffffff;fill-opacity:1" />
      <path
         class="cls-1"
         d="M411.05,76.29a5.27,5.27,0,0,1,4.17-1.64,3.62,3.62,0,0,1,3.2,1.53c.3.48.5.51.86.06,1.4-1.71,3.31-1.8,5.26-1.45a3.21,3.21,0,0,1,2.66,2.88c.46,2.81.13,5.65.22,8.47,0,.08,0,.2,0,.24-.86.75-1.88.21-2.82.33-.66.08-.62-.47-.62-.91,0-2.11,0-4.23-.06-6.34-.05-1.72-.81-2.56-2.18-2.58a2.39,2.39,0,0,0-2.42,2.58q-.14,3-.05,6.09c0,1-.33,1.22-1.24,1.19-2.66-.08-2.16.3-2.2-2.23,0-1.67,0-3.35-.07-5s-.88-2.6-2.2-2.6a2.39,2.39,0,0,0-2.4,2.59c-.09,2-.1,4.07-.05,6.1,0,.89-.23,1.19-1.14,1.17-2.79-.09-2.26.3-2.3-2.27,0-2.91,0-5.82-.08-8.73,0-.72.18-1,.93-1a3.84,3.84,0,0,0,.83,0C410.33,74.71,411.23,74.74,411.05,76.29Z"
         id="path24"
         style="fill:#ffffff;fill-opacity:1" />
      <path
         class="cls-1"
         d="M353.64,84.75a5.12,5.12,0,0,1-5.56,1.47l-.23-.06c-2.7-1-4-4.69-2.86-8.11a5.08,5.08,0,0,1,6.53-3.29,5.44,5.44,0,0,1,2.16,1.44c.49-.37-.1-1.23.55-1.33a15.26,15.26,0,0,1,2.62,0c.29,0,.35.3.34.55-.17,3.86.31,7.74-.28,11.58-.4,2.59-1.8,3.92-4.4,4.36a9.34,9.34,0,0,1-5.07-.45,3.16,3.16,0,0,1-2.14-2.51,1.07,1.07,0,0,1,0-.59c.22-.44,3-.18,3.26.28a2.48,2.48,0,0,0,3,1.28,2.31,2.31,0,0,0,2-2.2A5.55,5.55,0,0,0,353.64,84.75Zm-5.43-3.94a4.67,4.67,0,0,0,.5,2.15,2.39,2.39,0,0,0,2.19,1.39,2.3,2.3,0,0,0,2.26-1.27,5.36,5.36,0,0,0-.05-5.25,2.42,2.42,0,0,0-4.17-.13A5.15,5.15,0,0,0,348.21,80.81Z"
         id="path26"
         style="fill:#ffffff;fill-opacity:1" />
      <path
         class="cls-1"
         d="M192.87,76.17a5.1,5.1,0,0,1,4-1.67,4.59,4.59,0,0,1,4.39,3.28,8.61,8.61,0,0,1-.08,5.86,5,5,0,0,1-8,2c-.12-.1-.24-.18-.36-.27-.52.31.15,1.19-.6,1.25a13.93,13.93,0,0,1-2.74,0c-.36,0-.25-.54-.25-.84,0-5,.06-10.05,0-15.07,0-1,.35-1.13,1.18-1.1,2.65.08,2.19-.31,2.24,2.2,0,1.32,0,2.63,0,4C192.69,75.84,192.75,75.91,192.87,76.17Zm5.3,4.55a6.08,6.08,0,0,0-.23-2,2.55,2.55,0,0,0-4.95-.28,6.09,6.09,0,0,0,.13,4.86,2.28,2.28,0,0,0,2.16,1.43,2.48,2.48,0,0,0,2.35-1.35A5.25,5.25,0,0,0,198.17,80.72Z"
         id="path28"
         style="fill:#ffffff;fill-opacity:1" />
      <path
         class="cls-1"
         d="M236.77,76.13c0-2,0-3.74,0-5.48,0-.76.2-1.05,1-1,2.95.08,2.36-.34,2.41,2.38.08,4.58-.13,9.16.12,13.74.05.79-.21,1.09-1,1a4.26,4.26,0,0,0-1.07,0c-.93.09-1.68,0-1.45-1.49a5.6,5.6,0,0,1-4,1.68A4.6,4.6,0,0,1,228.34,84a7.85,7.85,0,0,1,.07-6.6A4.93,4.93,0,0,1,236,75.51Zm.06,4.61a4.85,4.85,0,0,0-.85-3,2.52,2.52,0,0,0-2.41-1,2.28,2.28,0,0,0-2,1.66,7.16,7.16,0,0,0,.07,4.79,2.51,2.51,0,0,0,4.6.26A5.28,5.28,0,0,0,236.83,80.74Z"
         id="path30"
         style="fill:#ffffff;fill-opacity:1" />
      <path
         class="cls-1"
         d="M239.57,28.52c1.55-4.85,3.1-9.62,4.58-14.4a1.23,1.23,0,0,1,1.44-1c.76,0,.91.45,1.1,1,1.46,4.42,2.94,8.84,4.41,13.26.11.34.23.67.34,1,.47,0,.41-.35.47-.59q1.68-6.6,3.35-13.2a7.37,7.37,0,0,0,.2-.81c.1-.8.7-.67,1.18-.61.76.1.28.65.21.92-1.31,5.08-2.68,10.16-4,15.25-.17.66-.44.94-1.13.91s-1.25,0-1.54-.88c-1.38-4.37-2.84-8.71-4.28-13-.12-.37-.27-.73-.44-1.2a1.93,1.93,0,0,0-.59,1.18c-1.37,4.29-2.76,8.57-4.07,12.87-.28.94-.77,1.08-1.63,1.1s-1-.47-1.2-1.13c-1.28-4.93-2.58-9.86-3.84-14.8-.1-.37-.64-.94.15-1.15s1.16,0,1.37.83c1.11,4.57,2.3,9.12,3.45,13.67A1.18,1.18,0,0,0,239.57,28.52Z"
         id="path32"
         style="fill:#ffffff;fill-opacity:1" />
      <path
         class="cls-1"
         d="M135.75,104.44A5.52,5.52,0,1,1,141.42,99,5.52,5.52,0,0,1,135.75,104.44Z"
         id="path34"
         style="fill:#ffffff;fill-opacity:1" />
      <path
         class="cls-1"
         d="M268.21,56.9a5,5,0,0,1-4.44,1.51,3.4,3.4,0,0,1-3.38-3,3.47,3.47,0,0,1,2.26-3.91,12.11,12.11,0,0,1,4.22-.75c.51,0,1.29.37,1.47-.31a2.29,2.29,0,0,0-.54-2.12,1.77,1.77,0,0,0-2.89.46,1.08,1.08,0,0,1-1.37.91c-.27,0-.56,0-.83,0-.49-.07-1.16.29-1.41-.28s.11-1.15.44-1.66a2.62,2.62,0,0,1,1-1,8.55,8.55,0,0,1,7.08-.26,3.16,3.16,0,0,1,1.81,3.14c.12,2.67.11,5.34.15,8,0,.15,0,.39-.12.42a7.89,7.89,0,0,1-2,.13c-.86.1-1.3-.22-1.29-1.1C268.41,57.09,268.32,57,268.21,56.9Zm.16-3.7c.08-.5-.13-.79-.71-.79a6.46,6.46,0,0,0-2.58.39,1.91,1.91,0,0,0-1.22,2.41,2,2,0,0,0,2.33,1.19C267.53,56.15,268.35,55,268.37,53.2Z"
         id="path36"
         style="fill:#ffffff;fill-opacity:1" />
      <path
         class="cls-1"
         d="M216.27,57a5.21,5.21,0,0,1-5.43,1.24,3,3,0,0,1-2.35-2.71,3.32,3.32,0,0,1,1.67-3.66,10.48,10.48,0,0,1,4.74-1c.51,0,1.29.37,1.48-.31a2.19,2.19,0,0,0-.68-2.29,1.77,1.77,0,0,0-2.72.65c-.27.87-.78,1-1.49.89-.24,0-.49,0-.72,0-.49-.07-1.18.29-1.42-.25s.13-1.16.44-1.67a2.56,2.56,0,0,1,1-1,8.51,8.51,0,0,1,7.18-.24,3,3,0,0,1,1.69,2.84c.21,2.7-.06,5.42.22,8.12,0,.18,0,.49-.13.54-.64.31-1.33.08-2,.16s-1.26-.07-1.29-.94C216.5,57.2,216.38,57.11,216.27,57Zm-.94-4.53a5.38,5.38,0,0,0-2.29.44,1.84,1.84,0,0,0,.63,3.58c1.49.15,2.55-1,2.74-2.83C216.51,52.67,216.26,52.22,215.33,52.42Z"
         id="path38"
         style="fill:#ffffff;fill-opacity:1" />
      <path
         class="cls-1"
         d="M335.59,53.55c.06,1.27.05,2.43.19,3.57.13,1-.24,1.21-1.11,1.12-.51-.05-1,0-1.55,0-.28,0-.59,0-.62-.39-.1-1-.42-.85-1.06-.31a5.51,5.51,0,0,1-5.56.35,3.58,3.58,0,0,1,.08-6,10.14,10.14,0,0,1,4.85-1.08c.49,0,1.28.38,1.44-.35a2.14,2.14,0,0,0-.82-2.34,1.75,1.75,0,0,0-2.6.78,1.05,1.05,0,0,1-1.29.86,9.55,9.55,0,0,0-1.07,0c-1.46,0-1.67-.38-1-1.68a4.21,4.21,0,0,1,3.38-2,10.71,10.71,0,0,1,3.7.08,3.29,3.29,0,0,1,3,3.46C335.65,51,335.59,52.31,335.59,53.55Zm-4.38-1.13a5,5,0,0,0-2.62.61,1.78,1.78,0,0,0-.89,1.82,1.75,1.75,0,0,0,1.37,1.49c1.65.49,3-.68,3.2-2.73C332.37,52.66,332.11,52.23,331.21,52.42Z"
         id="path40"
         style="fill:#ffffff;fill-opacity:1" />
      <path
         class="cls-1"
         d="M397.68,87c-4.14,0-6.49-2.27-6.48-6.26s2.48-6.23,6.58-6.23,6.39,2.28,6.4,6.22S401.78,87,397.68,87Zm-2.87-6.28a5.9,5.9,0,0,0,.28,2.36A2.55,2.55,0,0,0,397.54,85a2.49,2.49,0,0,0,2.55-1.62,6.41,6.41,0,0,0,0-5.22,2.67,2.67,0,0,0-5,.3A5.51,5.51,0,0,0,394.81,80.69Z"
         id="path42"
         style="fill:#ffffff;fill-opacity:1" />
      <path
         class="cls-1"
         d="M218.83,87c-3.37,0-5.48-1.26-6.34-3.66-1-2.78-.29-5.86,1.67-7.44a7.91,7.91,0,0,1,8.35-.42c2.15,1.38,3.08,4.2,2.37,7.11a5.61,5.61,0,0,1-5.09,4.34C219.39,86.94,219,87,218.83,87Zm2.65-6.18a5.55,5.55,0,0,0-.67-3,2.52,2.52,0,0,0-2.41-1.26,2.36,2.36,0,0,0-2.25,1.51,7.06,7.06,0,0,0,0,5.36A2.4,2.4,0,0,0,218.45,85a2.53,2.53,0,0,0,2.44-1.43A5.79,5.79,0,0,0,221.48,80.79Z"
         id="path44"
         style="fill:#ffffff;fill-opacity:1" />
      <path
         class="cls-1"
         d="M299.25,58.47c-4.11,0-6.46-2.33-6.4-6.33S295.36,46,299.49,46s6.36,2.34,6.34,6.3S303.38,58.49,299.25,58.47Zm-2.79-6.24a5.94,5.94,0,0,0,.32,2.47,2.56,2.56,0,0,0,2.43,1.8A2.47,2.47,0,0,0,301.69,55a6.44,6.44,0,0,0,.05-5.33,2.48,2.48,0,0,0-2.58-1.57,2.51,2.51,0,0,0-2.4,1.83A5.49,5.49,0,0,0,296.46,52.23Z"
         id="path46"
         style="fill:#ffffff;fill-opacity:1" />
      <path
         class="cls-1"
         d="M227.32,48.07a5.17,5.17,0,0,1,4.9-1.87,3.33,3.33,0,0,1,3.28,3.2c.14,2.71.07,5.42.1,8.14,0,.52-.24.72-.73.69h-.12c-2.54.18-2.51.18-2.55-2.34a36.24,36.24,0,0,0-.16-5.61,2,2,0,0,0-1.76-1.84,2.16,2.16,0,0,0-2.37,1.23,5,5,0,0,0-.55,2.43c0,1.71,0,3.43,0,5.15,0,.68-.12,1-.91,1-2.58.07-2.58.11-2.58-2.46,0-2.87,0-5.74,0-8.61,0-.72.21-.94.87-.88a4.71,4.71,0,0,0,.84,0C226.64,46.15,227.46,46.34,227.32,48.07Z"
         id="path48"
         style="fill:#ffffff;fill-opacity:1" />
      <path
         class="cls-1"
         d="M368.22,81.41h-3.48c-.32,0-.83-.12-.79.44a3.09,3.09,0,0,0,1.3,2.68,2.64,2.64,0,0,0,2.94,0,4,4,0,0,0,.5-.51c.35-.31.16-1,.76-1.1a23.08,23.08,0,0,1,2.63,0c.49,0,.27.39.22.62a3.82,3.82,0,0,1-2.48,2.86,8.23,8.23,0,0,1-6.19,0c-2.24-.91-3.37-3.37-3-6.44a6.16,6.16,0,0,1,9.16-4.87c1.88,1,3.3,4,2.78,5.91-.12.45-.43.4-.73.4h-3.59Zm-1.58-2c.56,0,1.12,0,1.68,0,.89.07,1-.4.84-1.1a2.34,2.34,0,0,0-2.3-1.9,2.69,2.69,0,0,0-2.72,1.91c-.21.74,0,1.15.83,1.09C365.53,79.42,366.09,79.45,366.64,79.45Z"
         id="path50"
         style="fill:#ffffff;fill-opacity:1" />
      <path
         class="cls-1"
         d="M277.2,82.89c-.17,2.07-1.46,3.42-3.78,3.9a9.17,9.17,0,0,1-3.69,0c-2.8-.57-4.36-2.72-4.34-5.89,0-4.81,3.61-7.49,8.23-6.19a5.65,5.65,0,0,1,3.83,6.17c-.11.61-.51.51-.88.51-2.24,0-4.48,0-6.71,0-1,0-1.14.41-1,1.22a2.73,2.73,0,0,0,2.26,2.32c1.28.18,2-.23,2.71-1.59a.66.66,0,0,1,.7-.46C275.44,82.9,276.32,82.89,277.2,82.89Zm-5.69-3.44c.6,0,1.19,0,1.79,0s.85-.3.72-1a2.21,2.21,0,0,0-2-2,2.64,2.64,0,0,0-2.78,1.39c-.63,1.19-.43,1.54.88,1.55Z"
         id="path52"
         style="fill:#ffffff;fill-opacity:1" />
      <path
         class="cls-1"
         d="M312.61,48.12a5.21,5.21,0,0,1,4.61-2c2.22.15,3.61,1.39,3.69,3.61.09,2.55,0,5.11,0,7.66,0,.65-.27.78-.85.81-2.55.14-2.53.16-2.56-2.36a43.88,43.88,0,0,0-.12-5.38,2.1,2.1,0,0,0-1.81-2.07,2.24,2.24,0,0,0-2.47,1.47,6.11,6.11,0,0,0-.43,2.57c0,1.64,0,3.27,0,4.91,0,.6-.2.82-.82.87-2.67.18-2.66.2-2.66-2.47s0-5.59,0-8.38c0-.94.29-1.22,1.15-1.1a2.57,2.57,0,0,0,.48,0C311.9,46.2,312.88,46.2,312.61,48.12Z"
         id="path54"
         style="fill:#ffffff;fill-opacity:1" />
      <path
         class="cls-1"
         d="M379.44,76.41a5.38,5.38,0,0,1,5-1.7,3.25,3.25,0,0,1,3.14,3.06c.14,2.75.07,5.5.09,8.26,0,.51-.24.65-.72.7-2.62.28-2.67.24-2.67-2.34,0-1.44,0-2.88,0-4.31a10.1,10.1,0,0,0-.18-1.54,1.89,1.89,0,0,0-1.7-1.61,2.11,2.11,0,0,0-2.25,1,4.83,4.83,0,0,0-.67,2.63c0,1.71,0,3.43,0,5.14,0,.68-.12,1-.91,1-3.09-.07-2.43.35-2.5-2.42s.13-5.74-.12-8.61c-.06-.77.23-1,.94-.92a7.85,7.85,0,0,0,.84,0C378.73,74.77,379.85,74.59,379.44,76.41Z"
         id="path56"
         style="fill:#ffffff;fill-opacity:1" />
      <path
         class="cls-1"
         d="M328.07,83.29c.82-2.35,1.63-4.71,2.47-7.05.18-.5.13-1.28.76-1.38a10,10,0,0,1,2.73,0c.53.06.14.53,0,.76-.87,2.18-1.77,4.35-2.66,6.52-1.07,2.57-2.19,5.12-3.18,7.72a1.79,1.79,0,0,1-2.07,1.39c-1.81-.1-2-.11-1.05-1.7a5.21,5.21,0,0,0-.06-5.53c-1.39-2.64-2.47-5.43-3.75-8.13-.45-1-.22-1.12.75-1.11,2.64,0,2.64,0,3.53,2.45.73,2,1.45,4,2.18,6Z"
         id="path58"
         style="fill:#ffffff;fill-opacity:1" />
      <path
         class="cls-1"
         d="M458.34,87a8.28,8.28,0,0,1-2.93-.35,3.53,3.53,0,0,1-1.9-1.38,2.29,2.29,0,0,1-.52-2c.27-.64,1.07-.24,1.63-.28.88,0,1.71-.23,2.07,1.12s2.63,1.35,3.41.25a1.16,1.16,0,0,0-.26-1.78,5,5,0,0,0-1.4-.66c-.75-.25-1.54-.41-2.3-.64-2.12-.64-3-1.6-2.92-3.24s1.13-2.83,3.22-3.3a8.43,8.43,0,0,1,4.72.24,3.34,3.34,0,0,1,2.19,2.35c.08.26.13.74,0,.8-.81.42-1.7.12-2.56.2-.38,0-.59-.07-.76-.52a1.79,1.79,0,0,0-2.53-1.23,1.31,1.31,0,0,0-1,1,1.15,1.15,0,0,0,.79,1.22,16.65,16.65,0,0,0,1.91.67c.84.26,1.7.46,2.53.73a2.88,2.88,0,0,1,2.14,2.61,3.32,3.32,0,0,1-1.69,3.33A7,7,0,0,1,458.34,87Z"
         id="path60"
         style="fill:#ffffff;fill-opacity:1" />
      <path
         class="cls-1"
         d="M295.45,87a7.37,7.37,0,0,1-2.83-.37,3.51,3.51,0,0,1-1.87-1.41,2.19,2.19,0,0,1-.46-1.91c.28-.67,1.07-.25,1.62-.32.95-.12,1.77-.11,2,1.15.15.71.9.94,1.64,1a2,2,0,0,0,1.86-.85c.5-.76.22-1.56-.85-2-1.26-.49-2.59-.77-3.87-1.2a3.13,3.13,0,0,1-.37-5.86,8,8,0,0,1,6.28-.14,3.38,3.38,0,0,1,1.18.8c.59.62,1.14,1.46.83,2.24-.2.54-1.15.15-1.76.22-.82.09-1.43,0-1.78-1s-2.31-1.2-3.06-.25a1,1,0,0,0,.19,1.57,3.9,3.9,0,0,0,1.5.7c1.08.29,2.16.57,3.22.91a2.82,2.82,0,0,1,2.16,2.7,3.27,3.27,0,0,1-1.73,3.29A7.33,7.33,0,0,1,295.45,87Z"
         id="path62"
         style="fill:#ffffff;fill-opacity:1" />
      <path
         class="cls-1"
         d="M244.43,58.47a7.77,7.77,0,0,1-2.83-.36,3.48,3.48,0,0,1-1.81-1.31c-.42-.64-.88-1.4-.52-2.11s1.1-.19,1.67-.24c.87-.06,1.72-.16,1.94,1.12.13.71.87,1,1.62,1a1.94,1.94,0,0,0,1.94-.91c.45-.8.08-1.38-.63-1.79a12.28,12.28,0,0,0-3.06-1c-2.43-.67-3.4-1.68-3.31-3.44s1.31-2.9,3.65-3.32a8.9,8.9,0,0,1,3.91.18,3.63,3.63,0,0,1,1.74,1c.58.63,1.16,1.43.85,2.23-.23.58-1.14.18-1.74.25-.82.1-1.43.05-1.78-1s-2.42-1.22-3.13-.19c-.46.67-.19,1.21.42,1.62a6.86,6.86,0,0,0,2.12.79c.84.24,1.7.44,2.52.73a2.83,2.83,0,0,1,2.09,2.64,3.31,3.31,0,0,1-1.61,3.24A7.22,7.22,0,0,1,244.43,58.47Z"
         id="path64"
         style="fill:#ffffff;fill-opacity:1" />
      <path
         class="cls-1"
         d="M445,87c-4.25,0-6.49-2.23-6.49-6.12s2.4-6.37,6.3-6.37c2.76,0,4.57,1,5.28,2.89.51,1.35.44,1.45-1,1.46-.36,0-.72,0-1.08,0-.63,0-1-.08-1.15-.83a1.78,1.78,0,0,0-1.77-1.51,2.13,2.13,0,0,0-2.25,1.07,6.83,6.83,0,0,0,0,6.31,2.09,2.09,0,0,0,2.35,1,1.79,1.79,0,0,0,1.68-1.61c.1-.91.58-1,1.28-.94.4,0,.8,0,1.2,0,1.2,0,1.38.25,1,1.42-.65,1.94-2.2,2.72-4.06,3.07A10.87,10.87,0,0,1,445,87Z"
         id="path66"
         style="fill:#ffffff;fill-opacity:1" />
      <path
         class="cls-1"
         d="M208.24,30.46c-3.82,0-6.35-2-7.18-5.7a12.66,12.66,0,0,1,.21-6.85,7,7,0,0,1,7.56-5.11c3.89.35,6.23,2.55,6.78,6.35a14.59,14.59,0,0,1-.25,5.81A6.77,6.77,0,0,1,208.24,30.46Zm5.81-8.84a9.29,9.29,0,0,0-1-4.74,5,5,0,0,0-4.66-2.79,4.9,4.9,0,0,0-4.86,2.66,10.11,10.11,0,0,0,.09,10,5.37,5.37,0,0,0,9,.26A8.67,8.67,0,0,0,214.05,21.62Z"
         id="path68"
         style="fill:#ffffff;fill-opacity:1" />
      <path
         class="cls-1"
         d="M257.47,83.64l1.83-5.11c.21-.6.4-1.21.61-1.81.71-2,1.27-2.29,3.41-1.93.91.16.35.66.23.95-1,2.67-2.13,5.32-3.21,8-.13.33-.24.67-.39,1-1.06,2.4-.31,1.89-2.94,2a2,2,0,0,1-2.3-1.59C253.56,82,252.25,79,251,75.87c-.34-.82-.25-1.09.72-1.09,2.52,0,2.52,0,3.32,2.36.73,2.17,1.48,4.33,2.22,6.49Z"
         id="path70"
         style="fill:#ffffff;fill-opacity:1" />
      <path
         class="cls-1"
         d="M316.6,71.43v1c0,2.1,0,2.14,2.1,2.24,1,0,.7.66.72,1.16s.14,1.1-.76,1.15c-2.06.13-2.06.17-2.06,2.31,0,1.15,0,2.31,0,3.46,0,1.4.37,1.75,1.79,1.75.52,0,1.09-.13,1,.71-.05.66.28,1.52-.88,1.57a12.37,12.37,0,0,1-3.1-.08,2.29,2.29,0,0,1-2.15-2.54c0-1.95-.07-3.91,0-5.86,0-1-.19-1.5-1.3-1.35-.34,0-.92.23-1-.28A3.53,3.53,0,0,1,311,75c.16-.43.8-.22,1.21-.19.81.07,1.22-.19,1.07-1.05s.28-1.14,1-1.37S315.72,71.78,316.6,71.43Z"
         id="path72"
         style="fill:#ffffff;fill-opacity:1" />
      <path
         class="cls-1"
         d="M190.07,52.45c0-1,0-1.91,0-2.87s-.22-1.11-1.07-1.08a1.28,1.28,0,0,1-1.18-2c.27-.52.79-.3,1.18-.27.82.06,1.21-.21,1.06-1.06-.22-1.17.76-1.23,1.44-1.52,1.86-.79,1.94-.77,1.85,1.25-.06,1.21.45,1.43,1.46,1.32.84-.1,1.53-.1,1.44,1.17-.07.92-.34,1.13-1.2,1.11-1.71,0-1.67-.31-1.67,1.65,0,1.4,0,2.8,0,4.19s.42,1.69,1.76,1.67c.62,0,1.11,0,1,.83s.14,1.36-1,1.48c-4.11.45-5.17-.43-5.17-4.47Z"
         id="path74"
         style="fill:#ffffff;fill-opacity:1" />
      <path
         class="cls-1"
         d="M276.77,52.63c0-1,0-2,0-3s-.27-1.27-1.16-1.13-1.21-.19-1.23-1.16.41-1.2,1.26-1.12c.63.07,1.27,0,1.11-.88s.37-1.29,1.18-1.6c2.14-.82,2.2-.85,2.12,1.35,0,1.16.51,1.2,1.36,1.15s1.52-.27,1.48,1c0,1-.32,1.41-1.3,1.24-1.31-.24-1.61.38-1.53,1.57.09,1.43,0,2.87,0,4.3s.37,1.68,1.75,1.66c.67,0,1.08.06,1,.87-.05.66.15,1.42-.91,1.41h-.12c-4.08.47-5.07-.39-5.07-4.39Z"
         id="path76"
         style="fill:#ffffff;fill-opacity:1" />
      <path
         class="cls-1"
         d="M141.36,78.65a32.16,32.16,0,0,0,5.71-3.54c1.94-1.35,4.19-.84,5.77,1.2a3.46,3.46,0,0,1-.31,5c-2,1.9-4.11,2.08-5.94.42A13.76,13.76,0,0,0,141.36,78.65Z"
         id="path78"
         style="fill:#ffffff;fill-opacity:1" />
      <path
         class="cls-1"
         d="M343.23,49.63c0,2.55,0,5.1,0,7.65,0,.72-.2.95-.94,1-2.55.07-2.55.09-2.55-2.48,0-4.5,0-9,0-13.5,0-.89.26-1.16,1.15-1.15,2.35,0,2.35,0,2.35,2.3Z"
         id="path80"
         style="fill:#ffffff;fill-opacity:1" />
      <path
         class="cls-1"
         d="M257.06,49.77c0,2.46,0,4.93,0,7.4,0,.85-.29,1.08-1.1,1.08-2.4,0-2.4,0-2.4-2.37,0-4.54,0-9.08,0-13.62,0-.89.24-1.17,1.14-1.14,2.86.09,2.31-.32,2.35,2.32C257.09,45.54,257.06,47.66,257.06,49.77Z"
         id="path82"
         style="fill:#ffffff;fill-opacity:1" />
      <path
         class="cls-1"
         d="M220.53,21.57c0-2.47,0-4.94,0-7.42,0-.76.21-1.05,1-1,2.76,0,5.52,0,8.28,0,.4,0,.9-.14.92.58s-.57.61-1,.61c-2.24,0-4.48,0-6.71,0-.73,0-1,.19-1,.94.06,1.51.07,3,0,4.54,0,.85.33,1,1.06,1q3,0,6,0c.47,0,1.25-.36,1.29.57s-.77.6-1.22.61c-2,0-4.08.05-6.12,0-.8,0-1,.24-1,1,.05,1.72.05,3.43,0,5.15,0,.67.19.89.88.88,2.32,0,4.63,0,6.95,0,.44,0,1.14-.3,1.12.61s-.64.58-1.06.58c-2.8,0-5.6,0-8.39,0-.88,0-1.08-.33-1.06-1.13C220.56,26.6,220.53,24.09,220.53,21.57Z"
         id="path84"
         style="fill:#ffffff;fill-opacity:1" />
      <path
         class="cls-1"
         d="M261,21.72c0-2.52,0-5,0-7.54,0-.72.11-1.09,1-1.07,2.79,0,5.59,0,8.39,0,.41,0,.9-.12.91.59s-.46.61-.88.61c-2.24,0-4.48.05-6.71,0-.93,0-1.16.28-1.12,1.15.07,1.43.05,2.87,0,4.31,0,.79.26,1,1,1,2.07,0,4.15,0,6.23,0,.44,0,1-.16,1,.62s-.62.57-1,.57c-2.11,0-4.23,0-6.35,0-.67,0-.91.2-.89.88,0,1.71,0,3.43,0,5.14,0,.77.2,1,1,1,2.32-.05,4.64,0,7,0,.41,0,1-.26,1.05.55s-.56.64-1,.64c-2.84,0-5.68,0-8.51,0-.87,0-1.07-.3-1.06-1.11C261.05,26.66,261,24.19,261,21.72Z"
         id="path86"
         style="fill:#ffffff;fill-opacity:1" />
      <path
         class="cls-1"
         d="M282.77,21.82a9.9,9.9,0,0,1,2-6.59,7.24,7.24,0,0,1,8.62-1.64,4.58,4.58,0,0,1,2.19,2.73c.09.29.38.79-.2.84s-1,.36-1.34-.34a4.64,4.64,0,0,0-8-.73,5.34,5.34,0,0,0-.6.89,10.39,10.39,0,0,0,0,9.55,5,5,0,0,0,6,2.4A3.5,3.5,0,0,0,294,26.66c.27-.87.95-.69,1.45-.54.67.2.18.72.06,1.07a4.47,4.47,0,0,1-1.76,2.22,7.05,7.05,0,0,1-10-2.59A11,11,0,0,1,282.77,21.82Z"
         id="path88"
         style="fill:#ffffff;fill-opacity:1" />
      <path
         class="cls-1"
         d="M284.35,76.66a4.08,4.08,0,0,1,3.21-1.92c.66,0,1.12.05,1,.87a1.55,1.55,0,0,0,0,.48c.15,1.08,0,1.68-1.42,1.64-1.68-.06-2.47.88-2.71,2.59a35.38,35.38,0,0,0-.09,5.25c0,.86-.21,1.19-1.13,1.18-2.29,0-2.28,0-2.29-2.26,0-2.87,0-5.74-.07-8.61,0-.83.24-1.21,1.09-1.09a1,1,0,0,0,.24,0C284,74.79,284,74.79,284.35,76.66Z"
         id="path90"
         style="fill:#ffffff;fill-opacity:1" />
      <path
         class="cls-1"
         d="M202.77,48.08a4.28,4.28,0,0,1,3.1-1.83c.7,0,1.2,0,1.06.92a2.48,2.48,0,0,0,0,.72c.09.87,0,1.33-1.16,1.3-1.94,0-2.94,1.07-3,3.09-.06,1.59-.07,3.19,0,4.78.05,1-.32,1.21-1.23,1.19-2.18,0-2.16,0-2.19-2.11,0-3,.15-6-.14-9-.07-.69.2-1,.87-.89a3.84,3.84,0,0,0,.48,0C202.4,46.3,202.4,46.3,202.77,48.08Z"
         id="path92"
         style="fill:#ffffff;fill-opacity:1" />
      <path
         class="cls-1"
         d="M305.27,24.47h-3.59c-.46,0-.84,0-.89.67a4.28,4.28,0,0,0,3.68,4.32A3.19,3.19,0,0,0,308,27.32c.26-.67.63-1,1.23-.71s.13.77,0,1.13a4.18,4.18,0,0,1-4.12,2.71c-2.1.1-3.95-.42-4.92-2.45a7.87,7.87,0,0,1,.24-7.57c1.08-1.9,3.13-2.65,5.63-2.21,1.78.31,3,1.7,3.41,3.85.44,2.4.44,2.4-2,2.4Zm-.75-1c1,0,1.91,0,2.87,0,.72,0,.87-.26.78-.93a3.59,3.59,0,0,0-3.51-3.4,4.07,4.07,0,0,0-3.73,3.7c0,.52.18.62.6.62Z"
         id="path94"
         style="fill:#ffffff;fill-opacity:1" />
      <path
         class="cls-1"
         d="M351.06,24.48c-1.16,0-2.32,0-3.47,0-.42,0-.76,0-.81.61a4.12,4.12,0,0,0,4.69,4.33A3.12,3.12,0,0,0,354,27.15a.79.79,0,0,1,1.2-.55c.56.23.12.7,0,1a4.15,4.15,0,0,1-3.91,2.82c-2.13.15-4.06-.27-5.11-2.31a7.92,7.92,0,0,1,0-7.36c1.05-2.14,3.12-3,5.8-2.54a4.25,4.25,0,0,1,3.46,4.05c.3,2.59.61,2.15-1.86,2.2-.83,0-1.67,0-2.51,0Zm-.55-1c.91,0,1.83,0,2.74,0s.94-.3.87-1a3.56,3.56,0,0,0-3.54-3.33,4.17,4.17,0,0,0-3.71,3.75c0,.53.26.57.65.57Z"
         id="path96"
         style="fill:#ffffff;fill-opacity:1" />
      <path
         class="cls-1"
         d="M386.19,24.33a6,6,0,0,1-.51,2.78c-1,2.45-3,3.57-5.87,3.3a5.13,5.13,0,0,1-4.59-4.23,9.12,9.12,0,0,1-.18-2.85c.4-3.48,2.7-5.49,6-5.28S386.19,20.49,386.19,24.33Zm-9.59-.2a11.81,11.81,0,0,0,0,1.19,4.36,4.36,0,0,0,3.1,4,3.51,3.51,0,0,0,4-1.5,6.41,6.41,0,0,0,.51-6.28,3.7,3.7,0,0,0-4.06-2.29C377.9,19.5,376.57,21.34,376.6,24.13Z"
         id="path98"
         style="fill:#ffffff;fill-opacity:1" />
      <path
         class="cls-1"
         d="M208.66,80.82c0,1.67,0,3.34,0,5,0,.67-.2.89-.88.91-2.61.11-2.61.13-2.61-2.41,0-2.83,0-5.66,0-8.48,0-.91.26-1.14,1.15-1.13,2.35,0,2.35,0,2.35,2.39Z"
         id="path100"
         style="fill:#ffffff;fill-opacity:1" />
      <path
         class="cls-1"
         d="M435.1,80.8c0,1.68,0,3.35,0,5,0,.65-.17.89-.86.92-2.63.12-2.63.14-2.63-2.52,0-2.83,0-5.65,0-8.48,0-.77.21-1,1-1,2.48,0,2.48,0,2.48,2.5Z"
         id="path102"
         style="fill:#ffffff;fill-opacity:1" />
      <path
         class="cls-1"
         d="M244.47,80.74c0-1.71,0-3.43,0-5.14,0-.68.21-.86.88-.87,2.61-.06,2.6-.08,2.6,2.51,0,2.82,0,5.65,0,8.48,0,.79-.26,1-1,1-2.46,0-2.46.06-2.46-2.43Z"
         id="path104"
         style="fill:#ffffff;fill-opacity:1" />
      <path
         class="cls-1"
         d="M315.29,20.18a5,5,0,0,1,5.37-1.85,3.19,3.19,0,0,1,2.63,3.28c.11,2.63,0,5.26.06,7.9,0,.5-.18.7-.7.71s-.71-.31-.71-.82c0-1.95,0-3.91,0-5.86,0-.44,0-.88,0-1.32-.15-1.63-.84-2.53-2.14-2.8a3.47,3.47,0,0,0-3.9,1.64,5.9,5.9,0,0,0-.63,2.89c0,1.79,0,3.58,0,5.38,0,.45,0,.88-.65.89s-.75-.39-.75-.92c0-3.31,0-6.62,0-9.93,0-.48-.25-1.07.64-1.1s.74.51.75,1C315.2,19.48,315.23,19.67,315.29,20.18Z"
         id="path106"
         style="fill:#ffffff;fill-opacity:1" />
      <path
         class="cls-1"
         d="M304.65,80.71c0-1.72,0-3.43,0-5.15,0-.6.17-.81.81-.83,2.6-.1,2.6-.13,2.6,2.41,0,2.8,0,5.59,0,8.38,0,.92-.23,1.25-1.2,1.23-2.22,0-2.22,0-2.22-2.21Z"
         id="path108"
         style="fill:#ffffff;fill-opacity:1" />
      <path
         class="cls-1"
         d="M285.94,52.14c0-1.67,0-3.35,0-5,0-.68.21-.87.88-.89,2.53,0,2.53-.08,2.53,2.49,0,2.83,0,5.66,0,8.5,0,.77-.24,1-1,1-2.38,0-2.38.07-2.38-2.28Z"
         id="path110"
         style="fill:#ffffff;fill-opacity:1" />
      <path
         class="cls-1"
         d="M189.06,21.69q0-3.82,0-7.65c0-.52,0-.93.73-.93s.84.34.84,1c0,4.5,0,9,0,13.5,0,1.11.2,1.53,1.41,1.47,2.11-.11,4.23,0,6.35,0,.42,0,.91-.1.9.61s-.51.59-.94.59c-2.75,0-5.5,0-8.26,0-.78,0-1-.23-1-1C189.09,26.7,189.06,24.19,189.06,21.69Z"
         id="path112"
         style="fill:#ffffff;fill-opacity:1" />
      <path
         class="cls-1"
         d="M368.22,24.72c0-1.44-.05-2.88,0-4.31,0-.86-.26-1.17-1.09-1.06a4.31,4.31,0,0,1-.72,0c-.34,0-.64,0-.64-.49s.19-.54.58-.59c.6-.07,1.43.33,1.76-.3a4.7,4.7,0,0,0,.1-1.89c0-2.49,1.17-3.44,3.67-3.14.46.06.61.22.6.67s-.31.44-.64.47c-2,.18-2.92,1.86-2.22,3.83.13.38.38.35.65.36.44,0,.88,0,1.32,0s.67.11.65.61-.32.44-.64.47c-2,.18-2,.19-2,2.26,0,2.55,0,5.11,0,7.66,0,.5,0,.95-.71.94s-.69-.46-.69-.95Z"
         id="path114"
         style="fill:#ffffff;fill-opacity:1" />
      <path
         class="cls-1"
         d="M329.15,23.91c0-1.19,0-2.39,0-3.58,0-.81-.26-1.08-1-1a7.85,7.85,0,0,1-.84,0c-.35,0-.5-.18-.49-.52s.15-.53.49-.54a1.94,1.94,0,0,1,.48,0c1.24.24,1.54-.39,1.37-1.46a2.17,2.17,0,0,1,0-.72c.14-.58.7-.67,1.12-.7s.27.47.31.75a3.37,3.37,0,0,1,0,.84c-.17,1.08.32,1.44,1.35,1.29a5.77,5.77,0,0,1,.72,0c.4,0,.56.21.55.6s-.21.47-.53.47h-.12c-2,.19-2,.19-2,2.2s0,3.75,0,5.62c0,1.64.46,2,2.11,1.92.32,0,.67-.19.68.34,0,.36.06.72-.47.8-2.37.34-3.75-.23-3.77-2.62C329.14,26.38,329.15,25.15,329.15,23.91Z"
         id="path116"
         style="fill:#ffffff;fill-opacity:1" />
      <path
         class="cls-1"
         d="M391.89,19.93a4.59,4.59,0,0,1,3.38-1.7c.51,0,.94,0,.93.71s-.37.65-.85.67c-2.43.1-3.44,1.14-3.47,3.58,0,1.95,0,3.91,0,5.86,0,.51.22,1.16-.72,1.18s-.77-.59-.77-1.14c0-3.27,0-6.53-.05-9.8,0-.44-.18-1,.62-1s.79.45.83,1C391.78,19.4,391.82,19.55,391.89,19.93Z"
         id="path118"
         style="fill:#ffffff;fill-opacity:1" />
      <path
         class="cls-1"
         d="M338.55,19.91A4.81,4.81,0,0,1,342,18.23c.49,0,.85,0,.86.67s-.29.69-.81.71c-2.42.12-3.45,1.17-3.51,3.6,0,2,0,4.06,0,6.1,0,.53-.05.91-.76.91s-.69-.46-.69-.95q0-5,0-9.93c0-.49-.17-1.06.7-1.07s.68.57.72,1.06C338.47,19.47,338.5,19.61,338.55,19.91Z"
         id="path120"
         style="fill:#ffffff;fill-opacity:1" />
      <path
         class="cls-1"
         d="M206.87,72.3c-.36,0-.72,0-1.08,0s-.76-.19-.68-.7-.37-1.6.28-1.85a4.14,4.14,0,0,1,3,0c.64.31.21,1.39.22,2.12,0,.54-.5.38-.83.4S207.19,72.31,206.87,72.3Z"
         id="path122"
         style="fill:#ffffff;fill-opacity:1" />
      <path
         class="cls-1"
         d="M287.53,43.81c-1.64,0-2-.51-1.63-2.14.05-.2.07-.44.29-.46a5.6,5.6,0,0,1,2.94.07c.71.34.25,1.37.28,2.09,0,.52-.46.42-.8.44Z"
         id="path124"
         style="fill:#ffffff;fill-opacity:1" />
      <path
         class="cls-1"
         d="M246,72.3c-1.75,0-1.54.37-1.6-1.66,0-.78.23-1.1,1-1a5.61,5.61,0,0,0,.71,0c2.07,0,2.07,0,1.86,2.05,0,.45-.19.64-.64.63S246.58,72.3,246,72.3Z"
         id="path126"
         style="fill:#ffffff;fill-opacity:1" />
      <path
         class="cls-1"
         d="M306.31,69.63c.89.07,1.92-.4,1.89,1.21,0,1.22-.34,1.68-1.53,1.47a4,4,0,0,0-.6,0A1.49,1.49,0,0,1,304.66,70C305,69.26,305.82,69.81,306.31,69.63Z"
         id="path128"
         style="fill:#ffffff;fill-opacity:1" />
      <path
         class="cls-1"
         d="M433.32,72.31a1,1,0,0,1-.24,0c-.49-.07-1.24.27-1.41-.24a5.51,5.51,0,0,1-.05-2.11c0-.36.41-.3.68-.31.67,0,1.35,0,2,0s.8.24.82.84C435.21,72.31,435.23,72.31,433.32,72.31Z"
         id="path130"
         style="fill:#ffffff;fill-opacity:1" />
    </g>
  </g>
</svg>
